<svg xmlns="http://www.w3.org/2000/svg" width="239.864" height="46.697" viewBox="0 0 239.864 46.697"><g transform="translate(0.413 0.445)"><path d="M504,66.207h20.745V63.3H508.027V55.132h7.624V52.219h-7.624V43.008h16.259V40.1H504Z" transform="translate(-285.544 -29.803)" fill="#1564d9" stroke="#000" stroke-width="0.5"/><path d="M504,66.207h20.745V63.3H508.027V55.132h7.624V52.219h-7.624V43.008h16.259V40.1H504Z" transform="translate(-285.544 -29.803)" fill="none" stroke="#000" stroke-miterlimit="22.93" stroke-width="0.5"/><path d="M427.91,65.568h4.027V47.329l10.354,9.736h.365l10.4-9.736V65.568h4.032V38.9h-.365L442.473,52.592,428.275,38.9h-.365Z" transform="translate(-245.085 -29.164)" fill="#1564d9" stroke="#000" stroke-width="0.5"/><path d="M427.91,65.568h4.027V47.329l10.354,9.736h.365l10.4-9.736V65.568h4.032V38.9h-.365L442.473,52.592,428.275,38.9h-.365Z" transform="translate(-245.085 -29.164)" fill="none" stroke="#000" stroke-miterlimit="22.93" stroke-width="0.5"/><path d="M351.82,65.568h4.032V47.329L366.2,57.065h.365l10.4-9.736V65.568h4.032V38.9h-.365L366.383,52.592,352.185,38.9h-.365Z" transform="translate(-204.626 -29.164)" fill="#1564d9" stroke="#000" stroke-width="0.5"/><path d="M351.82,65.568h4.032V47.329L366.2,57.065h.365l10.4-9.736V65.568h4.032V38.9h-.365L366.383,52.592,352.185,38.9h-.365Z" transform="translate(-204.626 -29.164)" fill="none" stroke="#000" stroke-miterlimit="22.93" stroke-width="0.5"/><path d="M227.13,66.207h7.961c11.861,0,17.589-5.816,17.589-13.051S246.957,40.1,235.1,40.1h-7.961Zm4.027-2.908V43.008h3.9c9.614,0,13.58,4.514,13.58,10.148S244.648,63.3,235.053,63.3Z" transform="translate(-138.326 -29.803)" fill="#1564d9" stroke="#000" stroke-width="0.5"/><path d="M227.13,66.207h7.961c11.861,0,17.589-5.816,17.589-13.051S246.957,40.1,235.1,40.1h-7.961Zm4.027-2.908V43.008h3.9c9.614,0,13.58,4.514,13.58,10.148S244.648,63.3,235.053,63.3Z" transform="translate(-138.326 -29.803)" fill="none" stroke="#000" stroke-miterlimit="22.93" stroke-width="0.5"/><path d="M184.066,66.11h.365V39.255H180.4V58.014l-20.927-19.5h-.412V65.361h4.027V46.714Z" transform="translate(-102.131 -28.957)" fill="#1564d9" stroke="#000" stroke-width="0.5"/><path d="M184.066,66.11h.365V39.255H180.4V58.014l-20.927-19.5h-.412V65.361h4.027V46.714Z" transform="translate(-102.131 -28.957)" fill="none" stroke="#000" stroke-miterlimit="22.93" stroke-width="0.5"/><path d="M117.617,74.44H109.6l-1.4,2.721h10.808Z" transform="translate(-75.088 -48.062)" fill="#1564d9" stroke="#000" stroke-width="0.5"/><path d="M117.617,74.44H109.6l-1.4,2.721h10.808Z" transform="translate(-75.088 -48.062)" fill="none" stroke="#000" stroke-miterlimit="22.93" stroke-width="0.5"/><path d="M101.243,57.382,107.654,44.7l5.306,10.415.014-.009,3.568,6.982-.042.023,1.644,3.25h4.215L107.837,38.51h-.365L97.01,57.859l3.152,1.592Z" transform="translate(-69.138 -28.957)" fill="#1564d9" stroke="#000" stroke-width="0.5"/><path d="M101.243,57.382,107.654,44.7l5.306,10.415.014-.009,3.568,6.982-.042.023,1.644,3.25h4.215L107.837,38.51h-.365L97.01,57.859l3.152,1.592Z" transform="translate(-69.138 -28.957)" fill="none" stroke="#000" stroke-miterlimit="22.93" stroke-width="0.5"/><path d="M51.552,66.956h.365L62.51,46.717,59.316,45.1,51.735,60.578,41.7,40.1H37.49Z" transform="translate(-37.49 -29.803)" fill="#1564d9" stroke="#000" stroke-width="0.5"/><path d="M51.552,66.956h.365L62.51,46.717,59.316,45.1,51.735,60.578,41.7,40.1H37.49Z" transform="translate(-37.49 -29.803)" fill="none" stroke="#000" stroke-miterlimit="22.93" stroke-width="0.5"/><path d="M309.762,74.1h-8.017l-1.4,2.725h10.808Z" transform="translate(-177.258 -47.881)" fill="#1564d9" stroke="#000" stroke-width="0.5"/><path d="M309.762,74.1h-8.017l-1.4,2.725h10.808Z" transform="translate(-177.258 -47.881)" fill="none" stroke="#000" stroke-miterlimit="22.93" stroke-width="0.5"/><path d="M288.663,57.382,295.074,44.7l5.306,10.415.014-.009,3.568,6.982-.042.023,1.644,3.25h4.21L295.257,38.51h-.365L280.37,65.361h4.214l2.66-5.259Z" transform="translate(-166.635 -28.957)" fill="#1564d9" stroke="#000" stroke-width="0.5"/><path d="M288.663,57.382,295.074,44.7l5.306,10.415.014-.009,3.568,6.982-.042.023,1.644,3.25h4.21L295.257,38.51h-.365L280.37,65.361h4.214l2.66-5.259Z" transform="translate(-166.635 -28.957)" fill="none" stroke="#000" stroke-miterlimit="22.93" stroke-width="0.5"/><rect width="6.312" height="4.032" transform="translate(24.077 35.712) rotate(-63.14)" fill="#ff0" stroke="#000" stroke-width="0.5"/><rect width="6.312" height="4.032" transform="translate(24.077 35.712) rotate(-63.14)" fill="none" stroke="#000" stroke-miterlimit="22.93" stroke-width="0.5"/><rect width="3.156" height="4.032" transform="translate(22.332 39.337) rotate(-63.14)" fill="#ff0" stroke="#000" stroke-width="0.5"/><rect width="3.156" height="4.032" transform="translate(22.332 39.337) rotate(-63.14)" fill="none" stroke="#000" stroke-miterlimit="22.93" stroke-width="0.5"/><path d="M82.349,109.268l-.155-2.936L82.04,103.4l2.622,1.33,2.618,1.335-2.463,1.6Z" transform="translate(-61.178 -63.461)" fill="#ff0" stroke="#000" stroke-width="0.5" fill-rule="evenodd"/><path d="M82.349,109.268l-.155-2.936L82.04,103.4l2.622,1.33,2.618,1.335-2.463,1.6Z" transform="translate(-61.178 -63.461)" fill="none" stroke="#000" stroke-miterlimit="22.93" stroke-width="0.5"/><rect width="6.312" height="4.032" transform="translate(22.285 13.908) rotate(-63.14)" fill="#ff0" stroke="#000" stroke-width="0.5"/><rect width="6.312" height="4.032" transform="translate(22.285 13.908) rotate(-63.14)" fill="none" stroke="#000" stroke-miterlimit="22.93" stroke-width="0.5"/><rect width="3.156" height="4.032" transform="translate(25.453 7.454) rotate(-63.14)" fill="#ff0" stroke="#000" stroke-width="0.5"/><rect width="3.156" height="4.032" transform="translate(25.453 7.454) rotate(-63.14)" fill="none" stroke="#000" stroke-miterlimit="22.93" stroke-width="0.5"/><path d="M99.456,18.11l.155,2.931.155,2.936-2.618-1.335L94.53,21.308l2.463-1.6Z" transform="translate(-67.819 -18.11)" fill="#ff0" stroke="#000" stroke-width="0.5" fill-rule="evenodd"/><path d="M99.456,18.11l.155,2.931.155,2.936-2.618-1.335L94.53,21.308l2.463-1.6Z" transform="translate(-67.819 -18.11)" fill="none" stroke="#000" stroke-miterlimit="22.93" stroke-width="0.5"/></g></svg>